<?xml version="1.0" encoding="UTF-8"?>
<svg id="Layer_1" data-name="Layer 1" xmlns="http://www.w3.org/2000/svg" xmlns:xlink="http://www.w3.org/1999/xlink" viewBox="0 0 32 32">
  <defs>
    <style>
      .cls-1 {
        fill: url(#linear-gradient);
        stroke-width: 0px;
      }
    </style>
    <linearGradient id="linear-gradient" x1=".33" y1="16" x2="31.67" y2="16" gradientUnits="userSpaceOnUse">
      <stop offset="0" stop-color="#ed218f"/>
      <stop offset="1" stop-color="#00d0ff"/>
    </linearGradient>
  </defs>
  <path class="cls-1" d="m19.25,15.19c-.81-.83-1.6-1.65-2.38-2.46.19-.2.41-.43.62-.65.37-.38.74-.75,1.11-1.12.62-.63,1.3-1.19,2.09-1.6.6-.31,1.22-.55,1.87-.68.4-.08.8-.14,1.21-.15.49-.01.99,0,1.47.06.89.11,1.72.41,2.51.84.99.54,1.81,1.27,2.47,2.17.4.54.71,1.13.95,1.76.21.54.36,1.1.43,1.67.05.48.08.97.05,1.46-.04.66-.17,1.32-.4,1.95-.22.61-.51,1.17-.86,1.71-.37.59-.85,1.08-1.36,1.53-.76.67-1.62,1.14-2.57,1.45-.49.16-.99.27-1.5.32-.56.05-1.11.05-1.67-.01-.77-.08-1.5-.29-2.2-.61-.66-.3-1.28-.67-1.81-1.17-.4-.37-.78-.75-1.17-1.13-.56-.56-1.11-1.12-1.67-1.68-.79-.79-1.58-1.57-2.38-2.36-.45-.45-.9-.9-1.35-1.35-.66-.66-1.31-1.32-1.97-1.98-.48-.48-1.04-.85-1.71-1.04-.56-.16-1.13-.22-1.72-.14-.52.07-1,.22-1.45.47-.58.32-1.07.75-1.42,1.31-.37.61-.62,1.26-.64,2-.01.48.02.95.16,1.41.08.26.2.51.32.76.42.84,1.09,1.42,1.94,1.79.68.3,1.4.39,2.15.29.93-.12,1.7-.53,2.36-1.17.61-.6,1.21-1.2,1.81-1.8.06-.06.12-.13.18-.2.3.29.58.57.87.85.5.5,1,1,1.51,1.5.07.07.05.1,0,.16-.32.31-.63.62-.95.93-.42.41-.82.83-1.25,1.23-.86.8-1.86,1.34-2.98,1.68-.89.27-1.79.33-2.71.27-.72-.05-1.41-.22-2.08-.49-.71-.28-1.37-.66-1.96-1.13-.54-.43-1.03-.92-1.42-1.49-.43-.63-.8-1.3-1.03-2.04-.17-.53-.31-1.07-.34-1.63-.02-.38-.05-.76-.02-1.14.02-.39.09-.77.17-1.15.12-.61.34-1.2.63-1.75.13-.26.29-.51.44-.76.29-.49.67-.9,1.07-1.3.81-.78,1.76-1.34,2.83-1.71.96-.33,1.95-.43,2.96-.36.82.05,1.6.27,2.36.59,1,.43,1.85,1.08,2.61,1.85.6.61,1.22,1.22,1.83,1.82.44.44.87.87,1.31,1.31.47.47.94.94,1.41,1.41.45.45.9.9,1.35,1.36.46.46.92.93,1.38,1.38.35.34.69.7,1.07,1.01.54.44,1.17.66,1.85.76.91.13,1.76-.04,2.56-.49.58-.33,1.07-.77,1.42-1.35.29-.48.51-1,.58-1.57.12-.93-.03-1.81-.49-2.64-.41-.73-1-1.26-1.74-1.62-.73-.35-1.49-.48-2.31-.37-.94.13-1.73.53-2.39,1.2-.58.59-1.18,1.17-1.76,1.76-.07.07-.12.14-.22.24Z"/>
</svg>